<?xml version="1.0" encoding="utf-8"?>
<!-- Generator: Adobe Illustrator 27.5.0, SVG Export Plug-In . SVG Version: 6.00 Build 0)  -->
<svg version="1.1" xmlns="http://www.w3.org/2000/svg" xmlns:xlink="http://www.w3.org/1999/xlink" x="0px" y="0px"
	 viewBox="0 0 500 500" style="enable-background:new 0 0 500 500;" xml:space="preserve">
<g id="BACKGROUND">
	<rect style="fill:#FFFFFF;" width="500" height="500"/>
</g>
<g id="OBJECTS">
	<g>
		<path style="fill:#E8E6FE;" d="M118.782,417.024c-30.865-20.187-56.708-49.15-69.222-83.842s-10.619-75.202,8.743-106.59
			c16.705-27.081,44.271-45.28,70.962-62.601c37.487-24.327,74.973-48.654,112.46-72.981c21.226-13.775,43.077-27.814,67.83-33.063
			c26.392-5.595,54.812-0.389,77.798,13.734c22.986,14.123,40.383,36.925,48.463,62.665c16.264,51.814-4.327,111.522,18.862,160.628
			c7.349,15.561,18.95,29.591,21.593,46.596c3.829,24.639-13.015,48.779-34.592,61.277c-21.577,12.497-47.079,15.837-71.827,18.879
			H135.045C129.879,419.807,123.394,420.04,118.782,417.024z"/>
		<g>
			<g>
				<path style="fill:#FFA901;" d="M458.502,433.967c0,0.154-0.051,0.309-0.165,0.463c-9.136,13.108-403.323,13.108-412.46,0
					c-0.113-0.154-0.165-0.309-0.165-0.463c32.955-22.934,112.941-39.118,206.395-39.118S425.547,411.033,458.502,433.967z"/>
				<path style="fill:#FDCA23;" d="M458.338,434.43c-9.136,13.108-403.323,13.108-412.46,0
					c47.318-14.991,122.088-24.673,206.23-24.673C336.25,409.758,411.019,419.439,458.338,434.43z"/>
			</g>
			<g>
				<g>
					<path style="fill:#452B99;" d="M26.129,339.842c9.454,8.847,22.39,13.925,36.337,13.077
						c13.936-0.847,26.162-7.456,34.485-17.383c-9.474-8.835-22.4-13.914-36.336-13.067
						C46.679,323.316,34.453,329.925,26.129,339.842z"/>
					<path style="fill:#FFFFFF;" d="M35.586,340.303l70.177-4.267c1.325-0.081,1.2-2.134-0.125-2.054l-70.177,4.267
						C34.136,338.329,34.261,340.383,35.586,340.303z"/>
					<g>
						<path style="fill:#FFFFFF;" d="M39.15,332.681c2.145,2.052,4.289,4.103,6.433,6.154l1.398-0.085
							c-2.383-2.28-4.766-4.56-7.15-6.84C39.352,331.451,38.672,332.223,39.15,332.681z"/>
						<path style="fill:#FFFFFF;" d="M47.765,330.498c2.688,2.572,5.376,5.143,8.064,7.714l1.399-0.085
							c-2.927-2.8-5.854-5.6-8.781-8.4C47.967,329.268,47.287,330.04,47.765,330.498z"/>
						<path style="fill:#FFFFFF;" d="M56.268,327.468l10.534,10.077l1.389-0.084c-0.009-0.01-0.011-0.02-0.021-0.03
							c-3.74-3.578-7.48-7.156-11.221-10.734C56.469,326.238,55.789,327.01,56.268,327.468z"/>
						<path style="fill:#FFFFFF;" d="M67.174,329.318c2.688,2.571,5.376,5.143,8.064,7.714l1.398-0.085
							c-2.927-2.8-5.854-5.6-8.78-8.4C67.376,328.088,66.696,328.86,67.174,329.318z"/>
						<path style="fill:#FFFFFF;" d="M79.324,330.238c2.145,2.051,4.289,4.103,6.433,6.154l1.398-0.085
							c-2.383-2.28-4.767-4.56-7.15-6.84C79.526,329.009,78.845,329.781,79.324,330.238z"/>
					</g>
					<g>
						<path style="fill:#FFFFFF;" d="M43.331,345.518c1.88-2.296,3.76-4.592,5.64-6.889l1.398-0.085
							c-2.09,2.552-4.179,5.104-6.268,7.655C43.68,346.714,42.912,346.03,43.331,345.518z"/>
						<path style="fill:#FFFFFF;" d="M52.147,346.641c2.357-2.878,4.714-5.756,7.07-8.634l1.398-0.085
							c-2.566,3.134-5.132,6.268-7.698,9.402C52.496,347.837,51.728,347.153,52.147,346.641z"/>
						<path style="fill:#FFFFFF;" d="M60.954,348.619l9.236-11.28l1.389-0.084c-0.007,0.01-0.008,0.021-0.017,0.032
							c-3.279,4.005-6.558,8.009-9.837,12.014C61.304,349.815,60.535,349.131,60.954,348.619z"/>
						<path style="fill:#FFFFFF;" d="M71.556,345.461c2.357-2.878,4.713-5.756,7.07-8.635l1.398-0.085
							c-2.566,3.134-5.132,6.268-7.698,9.402C71.905,346.657,71.136,345.973,71.556,345.461z"/>
						<path style="fill:#FFFFFF;" d="M83.505,343.075c1.88-2.296,3.76-4.592,5.64-6.888l1.399-0.085
							c-2.09,2.552-4.179,5.104-6.269,7.655C83.854,344.272,83.085,343.588,83.505,343.075z"/>
					</g>
				</g>
				<g>
					<path style="fill:#452B99;" d="M46.585,272.66c-2.43,12.717,0.184,26.366,8.349,37.705
						c8.159,11.33,20.275,18.137,33.113,19.872c2.41-12.728-0.199-26.369-8.358-37.699C71.531,281.207,59.415,274.401,46.585,272.66
						z"/>
					<path style="fill:#FFF6E5;" d="M51.246,280.901l41.086,57.053c0.775,1.077,2.445-0.126,1.67-1.203l-41.086-57.053
						C52.14,278.621,50.47,279.824,51.246,280.901z"/>
					<g>
						<path style="fill:#FFF6E5;" d="M59.593,279.844c-0.589,2.909-1.178,5.817-1.768,8.726l0.819,1.137
							c0.655-3.232,1.309-6.465,1.964-9.697C60.741,279.357,59.725,279.194,59.593,279.844z"/>
						<path style="fill:#FFF6E5;" d="M66.04,285.962c-0.738,3.646-1.477,7.292-2.215,10.938l0.819,1.137
							c0.804-3.97,1.608-7.94,2.412-11.909C67.187,285.475,66.171,285.312,66.04,285.962z"/>
						<path style="fill:#FFF6E5;" d="M73.142,291.532l-2.894,14.288l0.813,1.129c0.003-0.012,0.011-0.02,0.014-0.033
							c1.027-5.073,2.055-10.146,3.083-15.219C74.29,291.045,73.274,290.883,73.142,291.532z"/>
						<path style="fill:#FFF6E5;" d="M77.402,301.741c-0.738,3.646-1.477,7.292-2.215,10.938l0.819,1.137
							c0.804-3.97,1.608-7.94,2.412-11.909C78.55,301.254,77.534,301.091,77.402,301.741z"/>
						<path style="fill:#FFF6E5;" d="M83.113,312.504c-0.589,2.909-1.178,5.817-1.768,8.726l0.819,1.137
							c0.655-3.233,1.31-6.465,1.964-9.698C84.26,312.018,83.244,311.855,83.113,312.504z"/>
					</g>
					<g>
						<path style="fill:#FFF6E5;" d="M50.973,290.234c2.945,0.363,5.891,0.727,8.836,1.09l0.819,1.137
							c-3.273-0.404-6.547-0.808-9.82-1.211C50.148,291.168,50.316,290.153,50.973,290.234z"/>
						<path style="fill:#FFF6E5;" d="M54.732,298.288c3.692,0.455,7.384,0.911,11.076,1.366l0.819,1.137
							c-4.02-0.496-8.04-0.992-12.06-1.488C53.907,299.222,54.075,298.206,54.732,298.288z"/>
						<path style="fill:#FFF6E5;" d="M57.763,306.79l14.469,1.785l0.813,1.129c-0.013-0.001-0.023,0.004-0.036,0.003
							c-5.137-0.634-10.274-1.267-15.411-1.901C56.938,307.724,57.106,306.708,57.763,306.79z"/>
						<path style="fill:#FFF6E5;" d="M66.095,314.066c3.692,0.455,7.384,0.911,11.076,1.366l0.819,1.137
							c-4.02-0.496-8.04-0.992-12.06-1.488C65.27,315.001,65.437,313.985,66.095,314.066z"/>
						<path style="fill:#FFF6E5;" d="M74.493,322.895c2.945,0.363,5.891,0.727,8.836,1.09l0.819,1.137
							c-3.273-0.404-6.547-0.807-9.82-1.211C73.668,323.829,73.836,322.814,74.493,322.895z"/>
					</g>
				</g>
			</g>
			<g>
				<g>
					<path style="fill:#452B99;" d="M207.955,69.183c-3.834,12.367-2.759,26.222,4.09,38.401
						c6.844,12.17,18.125,20.285,30.689,23.442c3.815-12.38,2.744-26.226-4.1-38.396S220.511,72.345,207.955,69.183z"/>
					<path style="fill:#FFFFFF;" d="M211.667,77.893l34.464,61.281c0.651,1.157,2.444,0.148,1.794-1.009l-34.464-61.281
						C212.81,75.727,211.017,76.736,211.667,77.893z"/>
					<g>
						<path style="fill:#FFFFFF;" d="M220.08,77.774c-0.91,2.825-1.82,5.649-2.73,8.474l0.687,1.221
							c1.011-3.139,2.023-6.279,3.034-9.418C221.275,77.418,220.283,77.143,220.08,77.774z"/>
						<path style="fill:#FFFFFF;" d="M225.804,84.573c-1.141,3.541-2.281,7.081-3.422,10.622l0.687,1.221
							c1.242-3.855,2.484-7.711,3.726-11.566C226.999,84.217,226.007,83.942,225.804,84.573z"/>
						<path style="fill:#FFFFFF;" d="M232.241,90.9l-4.47,13.876l0.682,1.213c0.005-0.012,0.013-0.019,0.018-0.031
							c1.587-4.927,3.174-9.853,4.761-14.78C233.436,90.545,232.444,90.27,232.241,90.9z"/>
						<path style="fill:#FFFFFF;" d="M235.336,101.521c-1.141,3.541-2.281,7.082-3.422,10.622l0.687,1.221
							c1.242-3.855,2.484-7.711,3.726-11.566C236.53,101.166,235.539,100.891,235.336,101.521z"/>
						<path style="fill:#FFFFFF;" d="M239.809,112.854c-0.91,2.825-1.82,5.649-2.73,8.474l0.687,1.221
							c1.011-3.139,2.023-6.279,3.034-9.418C241.004,112.499,240.013,112.224,239.809,112.854z"/>
					</g>
					<g>
						<path style="fill:#FFFFFF;" d="M210.355,87.137c2.886,0.69,5.773,1.379,8.659,2.069l0.687,1.221
							c-3.208-0.766-6.416-1.533-9.624-2.299C209.431,87.974,209.711,86.984,210.355,87.137z"/>
						<path style="fill:#FFFFFF;" d="M213.192,95.56c3.618,0.864,7.236,1.729,10.854,2.593l0.687,1.221
							c-3.939-0.941-7.879-1.883-11.819-2.824C212.268,96.396,212.548,95.406,213.192,95.56z"/>
						<path style="fill:#FFFFFF;" d="M215.255,104.347l14.179,3.388l0.682,1.213c-0.013-0.002-0.023,0.002-0.036-0.001
							c-5.034-1.203-10.068-2.406-15.103-3.609C214.331,105.184,214.611,104.193,215.255,104.347z"/>
						<path style="fill:#FFFFFF;" d="M222.723,112.508c3.618,0.864,7.236,1.729,10.854,2.593l0.687,1.221
							c-3.939-0.941-7.879-1.883-11.818-2.824C221.799,113.344,222.079,112.354,222.723,112.508z"/>
						<path style="fill:#FFFFFF;" d="M230.084,122.218c2.886,0.69,5.773,1.379,8.659,2.069l0.687,1.221
							c-3.208-0.767-6.416-1.533-9.624-2.299C229.16,123.054,229.44,122.064,230.084,122.218z"/>
					</g>
				</g>
				<g>
					<path style="fill:#452B99;" d="M277.33,58.271c-12.503,3.363-23.643,11.672-30.282,23.966
						c-6.634,12.285-7.471,26.157-3.429,38.466c12.504-3.386,23.639-11.686,30.273-23.971S281.362,70.574,277.33,58.271z"/>
					<path style="fill:#FFF6E5;" d="M271.949,66.06l-33.405,61.864c-0.63,1.168,1.18,2.145,1.811,0.978l33.405-61.864
						C274.39,65.87,272.579,64.893,271.949,66.06z"/>
					<g>
						<path style="fill:#FFF6E5;" d="M276.542,73.11c-2.874,0.739-5.748,1.478-8.622,2.218l-0.666,1.233
							c3.194-0.821,6.388-1.643,9.583-2.465C277.481,73.93,277.184,72.945,276.542,73.11z"/>
						<path style="fill:#FFF6E5;" d="M273.851,81.58c-3.603,0.927-7.205,1.853-10.808,2.78l-0.666,1.233
							c3.923-1.009,7.845-2.018,11.768-3.027C274.789,82.4,274.492,81.415,273.851,81.58z"/>
						<path style="fill:#FFF6E5;" d="M271.939,90.401l-14.119,3.631l-0.661,1.224c0.013-0.002,0.023,0.001,0.036-0.002
							c5.013-1.289,10.026-2.578,15.038-3.868C272.877,91.221,272.58,90.236,271.939,90.401z"/>
						<path style="fill:#FFF6E5;" d="M264.612,98.689c-3.603,0.926-7.205,1.853-10.808,2.78l-0.666,1.233
							c3.923-1.009,7.846-2.018,11.768-3.027C265.551,99.51,265.254,98.524,264.612,98.689z"/>
						<path style="fill:#FFF6E5;" d="M257.42,108.525c-2.874,0.739-5.748,1.478-8.622,2.218l-0.666,1.233
							c3.194-0.821,6.388-1.643,9.583-2.465C258.358,109.345,258.061,108.36,257.42,108.525z"/>
					</g>
					<g>
						<path style="fill:#FFF6E5;" d="M263.432,69.888c0.958,2.809,1.917,5.617,2.875,8.426l-0.666,1.233
							c-1.065-3.121-2.13-6.243-3.195-9.364C262.231,69.553,263.218,69.261,263.432,69.888z"/>
						<path style="fill:#FFF6E5;" d="M257.826,76.784c1.201,3.521,2.403,7.041,3.604,10.562l-0.666,1.233
							c-1.308-3.833-2.616-7.667-3.924-11.5C256.625,76.45,257.612,76.158,257.826,76.784z"/>
						<path style="fill:#FFF6E5;" d="M251.499,83.222l4.708,13.797l-0.661,1.224c-0.005-0.012-0.014-0.019-0.018-0.031
							c-1.672-4.899-3.343-9.797-5.015-14.696C250.298,82.887,251.285,82.595,251.499,83.222z"/>
						<path style="fill:#FFF6E5;" d="M248.587,93.894c1.201,3.521,2.403,7.041,3.604,10.562l-0.666,1.233
							c-1.308-3.833-2.616-7.667-3.924-11.5C247.387,93.559,248.373,93.267,248.587,93.894z"/>
						<path style="fill:#FFF6E5;" d="M244.309,105.303c0.958,2.809,1.917,5.617,2.875,8.426l-0.666,1.233
							c-1.065-3.121-2.13-6.243-3.195-9.364C243.108,104.968,244.095,104.676,244.309,105.303z"/>
					</g>
				</g>
			</g>
			<g>
				<path style="fill:#0981F2;" d="M300.942,425.911H101.488c-9.971,0-18.054-8.083-18.054-18.054V128.845
					c0-9.971,8.083-18.054,18.054-18.054h199.454c9.971,0,18.054,8.083,18.054,18.054v279.012
					C318.996,417.828,310.913,425.911,300.942,425.911z"/>
				<path style="fill:#0064AB;" d="M312.442,114.94l-5.453,7.521L95.511,414.295l-5.453,7.531
					c-4.044-3.313-6.626-8.344-6.626-13.972V128.841c0-9.97,8.087-18.047,18.057-18.047h199.449
					C305.311,110.794,309.314,112.348,312.442,114.94z"/>
				<path style="fill:#FFFFFF;" d="M101.488,416.651c-4.849,0-8.794-3.945-8.794-8.794V128.845c0-4.849,3.945-8.794,8.794-8.794
					h199.454c4.849,0,8.794,3.945,8.794,8.794v279.011c0,4.849-3.945,8.794-8.794,8.794H101.488z"/>
				<path style="fill:#F2F2F2;" d="M306.989,122.462L95.511,414.295c-1.739-1.605-2.819-3.899-2.819-6.441V128.841
					c0-4.846,3.951-8.787,8.797-8.787h199.449C303.285,120.054,305.414,120.97,306.989,122.462z"/>
				<path style="fill:#FFA901;" d="M247.241,126.732l-5.988-19.621c-0.545-1.759-2.171-2.963-4.013-2.963h-29.694
					c1.101-1.492,1.698-3.395,1.502-5.463c-0.35-3.622-3.272-6.616-6.894-7.038c-4.774-0.545-8.818,3.159-8.818,7.82
					c0,1.759,0.587,3.375,1.554,4.681h-29.714c-1.842,0-3.467,1.204-4.002,2.974l-5.988,19.611
					c-0.823,2.696,1.193,5.412,4.013,5.412h84.029C246.048,132.143,248.064,129.427,247.241,126.732z M201.219,96.122
					c1.852,0,3.344,1.492,3.344,3.344c0,1.852-1.492,3.354-3.344,3.354c-1.852,0-3.354-1.502-3.354-3.354
					C197.865,97.614,199.367,96.122,201.219,96.122z"/>
				<path style="fill:#FDCA23;" d="M229.627,126.732l-5.988-19.621c-0.535-1.759-2.161-2.963-4.002-2.963h-54.459
					c-1.842,0-3.467,1.204-4.002,2.974l-5.988,19.611c-0.823,2.696,1.193,5.412,4.013,5.412h66.425
					C228.443,132.143,230.45,129.427,229.627,126.732z"/>
				<g>
					<polygon style="fill:#FFA901;" points="244.838,118.859 243.535,114.588 158.894,114.588 157.591,118.859 					"/>
				</g>
				<g>
					<g>
						<g>
							<path style="fill:#FF2E56;" d="M125.077,174.81h-14.062c-4.262,0-7.717-3.455-7.717-7.717v-14.062
								c0-4.262,3.455-7.717,7.717-7.717h14.062c4.262,0,7.717,3.455,7.717,7.717v14.062
								C132.794,171.355,129.339,174.81,125.077,174.81z"/>
							<g>
								<polygon style="fill:#3D238E;" points="115.662,167.357 107.671,159.321 110.589,156.419 115.825,161.684 128.59,150.24 
									131.337,153.305 								"/>
							</g>
						</g>
						<g>
							<rect x="140.682" y="145.315" style="fill:#0981F2;" width="158.448" height="4.069"/>
							<rect x="140.682" y="153.932" style="fill:#0981F2;" width="158.448" height="4.069"/>
							<rect x="140.682" y="162.55" style="fill:#0981F2;" width="158.448" height="4.069"/>
							<rect x="140.682" y="171.167" style="fill:#0981F2;" width="77.567" height="4.069"/>
						</g>
					</g>
					<g>
						<g>
							<path style="fill:#FF2E56;" d="M125.077,228.847h-14.062c-4.262,0-7.717-3.455-7.717-7.717v-14.061
								c0-4.262,3.455-7.717,7.717-7.717h14.062c4.262,0,7.717,3.455,7.717,7.717v14.061
								C132.794,225.393,129.339,228.847,125.077,228.847z"/>
							<g>
								<polygon style="fill:#3D238E;" points="115.662,221.395 107.671,213.358 110.589,210.457 115.825,215.722 128.59,204.278 
									131.337,207.342 								"/>
							</g>
						</g>
						<g>
							<rect x="140.682" y="199.353" style="fill:#0981F2;" width="158.448" height="4.069"/>
							<rect x="140.682" y="207.97" style="fill:#0981F2;" width="158.448" height="4.069"/>
							<rect x="140.682" y="216.587" style="fill:#0981F2;" width="158.448" height="4.069"/>
							<rect x="140.682" y="225.205" style="fill:#0981F2;" width="77.567" height="4.069"/>
						</g>
					</g>
					<g>
						<g>
							<path style="fill:#FF2E56;" d="M125.077,282.885h-14.062c-4.262,0-7.717-3.455-7.717-7.717v-14.061
								c0-4.262,3.455-7.717,7.717-7.717h14.062c4.262,0,7.717,3.455,7.717,7.717v14.061
								C132.794,279.43,129.339,282.885,125.077,282.885z"/>
							<g>
								<polygon style="fill:#3D238E;" points="115.662,275.433 107.671,267.396 110.589,264.494 115.825,269.76 128.59,258.315 
									131.337,261.38 								"/>
							</g>
						</g>
						<g>
							<rect x="140.682" y="253.39" style="fill:#0981F2;" width="158.448" height="4.069"/>
							<rect x="140.682" y="262.008" style="fill:#0981F2;" width="158.448" height="4.069"/>
							<rect x="140.682" y="270.625" style="fill:#0981F2;" width="158.448" height="4.069"/>
							<rect x="140.682" y="279.242" style="fill:#0981F2;" width="77.567" height="4.069"/>
						</g>
					</g>
					<g>
						<g>
							<path style="fill:#FF2E56;" d="M125.077,336.923h-14.062c-4.262,0-7.717-3.455-7.717-7.717v-14.061
								c0-4.262,3.455-7.717,7.717-7.717h14.062c4.262,0,7.717,3.455,7.717,7.717v14.061
								C132.794,333.468,129.339,336.923,125.077,336.923z"/>
							<g>
								<polygon style="fill:#3D238E;" points="115.662,329.47 107.671,321.434 110.589,318.532 115.825,323.797 128.59,312.353 
									131.337,315.418 								"/>
							</g>
						</g>
						<g>
							<rect x="140.682" y="307.428" style="fill:#0981F2;" width="158.448" height="4.069"/>
							<rect x="140.682" y="316.045" style="fill:#0981F2;" width="158.448" height="4.069"/>
							<rect x="140.682" y="324.663" style="fill:#0981F2;" width="158.448" height="4.069"/>
							<rect x="140.682" y="333.28" style="fill:#0981F2;" width="77.567" height="4.069"/>
						</g>
					</g>
					<g>
						<g>
							<path style="fill:#FF2E56;" d="M125.077,390.96h-14.062c-4.262,0-7.717-3.455-7.717-7.717v-14.061
								c0-4.262,3.455-7.717,7.717-7.717h14.062c4.262,0,7.717,3.455,7.717,7.717v14.061
								C132.794,387.505,129.339,390.96,125.077,390.96z"/>
							<g>
								<polygon style="fill:#3D238E;" points="115.662,383.508 107.671,375.471 110.589,372.569 115.825,377.835 128.59,366.391 
									131.337,369.455 								"/>
							</g>
						</g>
						<g>
							<rect x="140.682" y="361.466" style="fill:#0981F2;" width="158.448" height="4.069"/>
							<rect x="140.682" y="370.083" style="fill:#0981F2;" width="158.448" height="4.069"/>
							<rect x="140.682" y="378.7" style="fill:#0981F2;" width="158.448" height="4.069"/>
							<rect x="140.682" y="387.318" style="fill:#0981F2;" width="77.567" height="4.069"/>
						</g>
					</g>
				</g>
			</g>
			
				<ellipse transform="matrix(0.7071 -0.7071 0.7071 0.7071 -116.5422 101.0683)" style="fill:#0981F2;" cx="63.729" cy="191.213" rx="10.289" ry="10.289"/>
			<circle style="fill:#0981F2;" cx="61.671" cy="169.214" r="4.63"/>
			<circle style="fill:#6737C1;" cx="399.403" cy="112.246" r="10.546"/>
			<path style="fill:#6737C1;" d="M410.012,84.627c0,3.849-3.12,6.97-6.97,6.97s-6.97-3.12-6.97-6.97c0-3.849,3.121-6.97,6.97-6.97
				S410.012,80.777,410.012,84.627z"/>
			<circle style="fill:#6737C1;" cx="446.475" cy="98.099" r="3.601"/>
			<polygon style="fill:#FFA901;" points="319.523,70.855 324.959,81.871 337.115,83.637 328.319,92.212 330.396,104.318 
				319.523,98.602 308.65,104.318 310.727,92.212 301.93,83.637 314.086,81.871 			"/>
			<g>
				<path style="fill:#FFC010;" d="M182.403,239.762c4.037-0.152,7.751,1.346,10.499,3.895c2.739,2.549,4.51,6.141,4.662,10.169
					l5.906,157.391l-14.157,20.733l-15.068-19.637l-5.906-157.391C168.037,246.858,174.33,240.064,182.403,239.762z"/>
				<path style="fill:#CF2E4D;" d="M180.053,240.044c0.759-0.152,1.545-0.251,2.355-0.278c8.07-0.306,14.853,5.995,15.159,14.065
					l0.211,5.78l-8.559,0.32l-20.663,0.783l-0.213-5.788c-0.216-5.72,2.887-10.808,7.598-13.384
					C177.202,240.855,178.584,240.34,180.053,240.044z"/>
				<path style="fill:#FF2E56;" d="M175.94,241.541c7.139,0.721,12.839,6.62,13.117,14l0.161,4.39l-20.663,0.783l-0.213-5.788
					C168.127,249.206,171.229,244.118,175.94,241.541z"/>
				<g>
					<path style="fill:#FEA901;" d="M173.602,261.126l19.178-0.72l5.589,148.962c-1.864-0.451-3.787-0.745-5.749-0.891
						c-1.284-0.089-2.574-0.114-3.889-0.064c-1.315,0.049-2.6,0.171-3.874,0.356c-1.946,0.292-3.841,0.729-5.666,1.319
						L173.602,261.126z"/>
					<path style="fill:#FFC010;" d="M179.31,260.912l7.763-0.291l5.548,147.857c-1.284-0.089-2.574-0.114-3.889-0.064
						c-1.315,0.049-2.6,0.171-3.874,0.356L179.31,260.912z"/>
				</g>
				<path style="fill:#F9C89D;" d="M188.73,408.417c2.148-0.084,4.266,0.025,6.329,0.324c2.926,0.414,5.749,1.196,8.403,2.284
					l0.005,0.194l-10.334,15.139l-3.815,5.596l-4.129-5.383l-1.219-1.589l-9.726-12.669l-0.005-0.194
					C178.61,409.924,183.514,408.607,188.73,408.417z"/>
				<path style="fill:#FFE3BB;" d="M188.73,408.417c2.148-0.084,4.266,0.025,6.329,0.324l-10.636,15.582l-0.453,0.66l-9.726-12.669
					l-0.005-0.194C178.61,409.924,183.514,408.607,188.73,408.417z"/>
				<path style="fill:#3D238E;" d="M189.058,425.164c1.507-0.056,2.923,0.384,4.078,1.191l-3.823,5.594l-4.125-5.378
					C186.263,425.727,187.597,425.219,189.058,425.164z"/>
			</g>
			<g>
				<path style="fill:#7C7CFE;" d="M446.115,393.425c0,2.415-1.958,4.373-4.373,4.373c-2.415,0-4.373-1.958-4.373-4.373
					c0-2.415,1.958-4.373,4.373-4.373C444.157,389.052,446.115,391.01,446.115,393.425z"/>
				<circle style="fill:#7C7CFE;" cx="450.988" cy="363.343" r="8.474"/>
				<circle style="fill:#7C7CFE;" cx="425.537" cy="384.036" r="3.601"/>
				
					<ellipse transform="matrix(0.2286 -0.9735 0.9735 0.2286 -0.233 676.3416)" style="fill:#7C7CFE;" cx="426.654" cy="338.318" rx="11.921" ry="11.921"/>
				<g>
					<path style="fill:#241F3F;" d="M387.211,414.158c0,0,14.019,7.074,13.89,10.932c-0.106,3.189-24.719,3.127-33.261,3.01
						c-1.6-0.022-2.879-1.325-2.879-2.925v-12.174L387.211,414.158z"/>
					<path style="fill:#241F3F;" d="M296.412,414.158c0,0-14.018,7.074-13.89,10.932c0.106,3.189,24.719,3.127,33.26,3.01
						c1.6-0.022,2.879-1.325,2.879-2.925v-12.174L296.412,414.158z"/>
					<path style="fill:#241F3F;" d="M341.811,317.78h-56.203l9.774,90.591h21.864l7.949-54.904
						c1.195-8.257,8.272-14.383,16.615-14.383s15.42,6.126,16.615,14.383l7.949,54.904h21.864l9.774-90.591H341.811z"/>
					<path style="fill:#2E1C66;" d="M393.984,403.912c0-5.659-4.779-4.493-4.779-4.493l-0.386,3.575h-11.984h-11.248l-0.512-3.597
						c0,0-5.26-0.752-5.388,4.515c-0.137,5.606-2.008,13.232,17.148,13.369C395.992,417.144,393.984,409.52,393.984,403.912z"/>
					<path style="fill:#2E1C66;" d="M289.638,403.912c0-5.659,4.779-4.493,4.779-4.493l0.386,3.575h11.984h11.248l0.512-3.597
						c0,0,5.26-0.752,5.388,4.515c0.137,5.606,2.008,13.232-17.148,13.369C287.63,417.144,289.638,409.52,289.638,403.912z"/>
				</g>
				<path style="fill:#452B99;" d="M450.991,233.202l-34.715,21.607c-5.659-10.289-20.835-13.91-20.835-13.91l6.688,78.915
					c-27.296,12.203-53.821,4.29-59.295,2.418c-0.669-0.237-1.029-0.381-1.029-0.381s-0.36,0.144-1.029,0.381
					c-5.474,1.872-31.988,9.785-59.284-2.418l6.688-78.915l-48.872,1.307v-42.442l78.535-13.118l22.625,12.347l1.307,7.809
					l0.031,0.165l0.031-0.165l1.317-7.809l22.625-12.347l28.634,5.144C410.618,195.133,450.991,233.202,450.991,233.202z"/>
				<path style="fill:#FFABAB;" d="M239.309,199.763v41.135l-29.107,2.984l-7.964,0.813l-1.801,0.185l-15.31,1.564l-15.269-15.433
					c1.914-2.819,6.503-5.957,12.46-9.126C202.752,211.009,239.309,199.763,239.309,199.763z"/>
				<path style="fill:#FF9092;" d="M210.201,243.882l-7.964,0.813l-0.031-0.124l-1.78,0.247l0.01,0.062l-15.31,1.564l-15.269-15.433
					c1.914-2.819,6.503-5.957,12.46-9.126c0.967-0.123,1.934-0.175,2.891-0.175c11.061,0,21.03,7.418,23.973,18.438L210.201,243.882
					z"/>
				<path style="fill:#2E1C66;" d="M341.811,214.94l14.447,9.089c0,0,16.977-7.888,22.293-25.894l-7.312-10.136L341.811,214.94z"/>
				<path style="fill:#2E1C66;" d="M341.811,214.94l-14.447,9.089c0,0-16.977-7.888-22.293-25.894l7.312-10.136L341.811,214.94z"/>
				<path style="fill:#2E1C66;" d="M413.705,262.44c0,0-2.229-12.347,6.173-20.749c6.986-6.985,24.519-16.223,38.216-14.41
					c4.728,0.626,8.627,4.095,9.838,8.708c2.266,8.634,3.685,24.177-12.042,31.822L413.705,262.44z"/>
				<path style="fill:#FA8D93;" d="M407.871,296.56c0,0,0.669,6.554-9.435,9.147c-2.397,0.617-4.795-1.019-5.031-3.488
					l-1.163-12.449l-0.607-6.431c-0.185-1.944,0.854-3.817,2.634-4.63c1.605-0.741,3.817-0.988,6.4,0.71
					c0,0,20.979-41.752,44.746-45.621c6.616-1.08,12.933,2.006,16.308,7.182c1.656,2.51,2.613,5.505,2.593,8.745
					C464.213,263.009,452.185,281.878,407.871,296.56z"/>
				<path style="fill:#FFABAB;" d="M407.871,296.56c0,0,0.669,6.554-9.435,9.147c-2.397,0.617-4.795-1.019-5.031-3.488
					l-1.163-12.449c0.494-0.916,1.266-1.677,2.253-2.13c1.749-0.803,4.146-1.08,6.955,0.772c0,0,22.79-45.343,48.594-49.562
					c4.198-0.679,8.272,0.175,11.678,2.13c1.656,2.51,2.613,5.505,2.593,8.745C464.213,263.009,452.185,281.878,407.871,296.56z"/>
				<polygon style="fill:#2E1C66;" points="325.735,258.003 315.446,261.754 305.071,258.003 305.071,240.897 325.735,240.897 				
					"/>
				<path style="fill:#FFABAB;" d="M202.494,245.33l-1.45-5.321l-0.004,0l-0.001-0.004c-2.601-9.768-12.218-15.947-22.191-14.26
					c-4.481,0.763-8.403,3.009-11.283,6.201c-2.654,2.944-4.417,6.684-4.9,10.8c-0.054,0.355-0.086,0.709-0.108,1.064l-0.258,4.094
					v0.075h0.011l0.376,2.536c0.129,0.86,0.58,1.601,1.236,2.138c0.656,0.537,1.515,0.86,2.429,0.86
					c2.235,0,3.911-1.859,3.546-3.933l-0.462-2.568l0.924-0.118l0.001,0l0.39,2.668c0.25,1.712,1.825,2.999,3.668,2.998
					c2.234-0.001,3.913-1.864,3.543-3.93l-0.482-2.693l1.251-0.171l0.008-0.001l0.427,2.919c0.25,1.712,1.825,2.999,3.668,2.998
					c2.234-0.001,3.913-1.864,3.543-3.93l-0.529-2.953l0.007-0.001l1.161-0.15l0.007-0.001l0.425,2.909
					c0.25,1.712,1.824,2.999,3.668,2.998c2.234-0.001,3.913-1.864,3.543-3.93l-0.525-2.933l1.408-0.191l0.818,3.402
					c0.374,1.556,1.851,2.589,3.441,2.406C201.727,249.086,203.003,247.201,202.494,245.33z"/>
				<path style="fill:#2E1C66;" d="M235.818,197.945l5.963-1.296c2.638-0.573,5.097,1.514,4.956,4.21
					c-0.479,9.155-1.103,28.142,0.955,41.832c0.374,2.491-1.522,4.739-4.04,4.739h-4.753c-2.121,0-4.003-1.384-4.608-3.417
					c-1.905-6.407-5.205-21.459-2.222-42.049C232.357,199.976,233.855,198.372,235.818,197.945z"/>
				<path style="fill:#2E1C66;" d="M342.835,207.798v114.433c-0.669-0.237-1.029-0.381-1.029-0.381s-0.36,0.144-1.029,0.381V207.798
					c0-0.658,0.494-0.988,0.998-0.998h0.062C342.341,206.811,342.835,207.14,342.835,207.798z"/>
				<g>
					<g>
						<path style="fill:#FFABAB;" d="M369.082,166.702c-1.579,1.579-5.503,2.943-7.082,1.364c-1.579-1.579-0.215-5.503,1.364-7.082
							c1.579-1.579,4.139-1.579,5.718,0C370.661,162.563,370.661,165.124,369.082,166.702z"/>
						<path style="fill:#FFABAB;" d="M314.541,166.702c1.579,1.579,5.503,2.943,7.082,1.364c1.579-1.579,0.215-5.503-1.364-7.082
							c-1.579-1.579-4.139-1.579-5.718,0C312.962,162.563,312.962,165.124,314.541,166.702z"/>
					</g>
					<polygon style="fill:#FFABAB;" points="368.176,185.161 315.446,185.161 325.478,149.092 358.145,149.092 					"/>
					<path style="fill:#241F3F;" d="M371.239,187.999l-8.984-33.716c-0.452-1.696-1.988-2.876-3.743-2.876h-5.126
						c0,0-0.386,5.916,6.302,7.717l4.116,20.192c0,0-10.289-4.379-21.992-4.379c-11.704,0-21.992,4.379-21.992,4.379l4.116-20.192
						c6.688-1.8,6.302-7.717,6.302-7.717h-5.126c-1.755,0-3.291,1.18-3.743,2.876l-8.984,33.716c-0.445,1.671-0.265,3.46,0.54,4.991
						c9.742,18.523,28.887,21.95,28.887,21.95s19.145-3.427,28.887-21.95C371.503,191.46,371.684,189.671,371.239,187.999z"/>
					<path style="fill:#FA8D93;" d="M344.089,180.215h-4.555c-2.009,0-3.41-1.992-2.731-3.883l1.139-3.17
						c0.587-1.633,2.135-2.722,3.87-2.722l0,0c1.735,0,3.283,1.089,3.87,2.722l1.139,3.17
						C347.499,178.223,346.098,180.215,344.089,180.215z"/>
					<path style="fill:#241F3F;" d="M326.352,153.788c1.838-1.146,4.122-1.333,6.115-0.484c5.939,2.532,12.304,4.339,18.524,2.969
						c6.649-1.465,12.307-6.764,14.206-13.302c-2.808,1.757-6.493,0.723-9.557-0.536c-3.063-1.259-5.928-3.104-9.179-3.736
						c-5.513-1.071-11.562,1.943-14.027,6.988c-1.215-0.99-3.014-1.019-4.514-0.565c-1.5,0.454-2.776,1.478-3.79,2.673
						c-2.182,2.571-3.272,6.041-2.952,9.398C322.669,155.974,324.567,154.902,326.352,153.788z"/>
				</g>
				<path style="fill:#2E1C66;" d="M395.86,238.353c-3.733-1.917-6.268-5.243-7.133-9.349c-0.273-1.298-2.257-0.747-1.984,0.547
					c0.966,4.584,3.912,8.439,8.079,10.579C395.999,240.735,397.04,238.96,395.86,238.353z"/>
				<path style="fill:#2E1C66;" d="M297.606,227.456c-1.972,4.449-5.051,8.132-9.134,10.792c-1.107,0.721-0.077,2.504,1.039,1.777
					c4.365-2.843,7.758-6.762,9.872-11.53C299.916,227.293,298.143,226.245,297.606,227.456z"/>
				<path style="fill:#2E1C66;" d="M392.563,274.693c-2.513-0.157-3.924,1.461-4.672,3.694c-0.605,1.807-0.181,4.14-0.119,5.985
					c0.087,2.561,0.173,5.122,0.26,7.683c0.045,1.323,2.103,1.328,2.058,0c-0.087-2.584-2.051-15.587,2.473-15.305
					C393.889,276.834,393.881,274.776,392.563,274.693z"/>
				<path style="fill:#2E1C66;" d="M293.302,198.943l-39.495,6.17c-1.308,0.204-0.751,2.187,0.547,1.984l39.495-6.17
					C295.158,200.723,294.6,198.74,293.302,198.943z"/>
				<g>
					<path style="fill:#241F3F;" d="M354.222,166.619c0,1.172-0.95,2.122-2.122,2.122s-2.122-0.95-2.122-2.122
						c0-1.172,0.95-2.122,2.122-2.122S354.222,165.447,354.222,166.619z"/>
					<path style="fill:#241F3F;" d="M333.644,166.619c0,1.172-0.95,2.122-2.122,2.122c-1.172,0-2.122-0.95-2.122-2.122
						c0-1.172,0.95-2.122,2.122-2.122C332.694,164.497,333.644,165.447,333.644,166.619z"/>
				</g>
				<path style="fill:#241F3F;" d="M355.161,163.2c-2.024-2.024-5.306-2.024-7.331,0c-0.515-0.515-1.031-1.031-1.546-1.546
					c2.878-2.878,7.545-2.878,10.423,0C356.192,162.17,355.676,162.685,355.161,163.2z"/>
				<path style="fill:#241F3F;" d="M335.188,163.2c-2.024-2.024-5.307-2.024-7.331,0c-0.515-0.515-1.031-1.031-1.546-1.546
					c2.878-2.878,7.545-2.878,10.423,0C336.218,162.17,335.703,162.685,335.188,163.2z"/>
				<path style="fill:#FFFFFF;" d="M335.595,190.154c2.414,3.309,6.948,4.438,10.675,2.466c3.727-1.972,5.344-6.356,3.965-10.213
					L335.595,190.154z"/>
			</g>
		</g>
	</g>
</g>
<g id="DESIGNED_BY_FREEPIK">
	<g>
		<g id="XMLID_319_">
			<g id="XMLID_338_">
				<path id="XMLID_346_" style="fill:#102028;" d="M260.104,465.465c-0.432,0.443-0.803,0.931-1.108,1.453l-0.465-0.241
					c-0.067-0.298-0.349-0.503-0.659-0.466c-0.331,0.039-0.568,0.339-0.529,0.67s0.339,0.568,0.67,0.529
					c0.065-0.008,0.127-0.026,0.184-0.052l0.451,0.234c-0.251,0.554-0.433,1.139-0.539,1.744l0.746,0.132
					c0.23-1.306,0.85-2.507,1.792-3.473L260.104,465.465z"/>
				<path id="XMLID_345_" style="fill:#102028;" d="M265.592,463.163c-0.171,0-0.341,0.006-0.51,0.017l-0.074-0.626
					c0.188-0.149,0.296-0.389,0.266-0.645c-0.046-0.393-0.402-0.674-0.795-0.628s-0.674,0.402-0.628,0.795
					c0.03,0.254,0.189,0.461,0.405,0.564l0.073,0.624c-0.714,0.116-1.403,0.332-2.06,0.646l0.327,0.684
					c0.934-0.447,1.942-0.673,2.995-0.673c0.496,0,0.993,0.053,1.475,0.158l0.161-0.741
					C266.693,463.222,266.142,463.163,265.592,463.163z"/>
				<path id="XMLID_344_" style="fill:#102028;" d="M272.194,465.711c0.331-0.04,0.566-0.341,0.525-0.672
					c-0.04-0.331-0.341-0.566-0.672-0.526c-0.309,0.038-0.535,0.304-0.53,0.609l-0.416,0.363c-0.418-0.43-0.89-0.813-1.408-1.139
					l-0.404,0.641c1.134,0.715,2.021,1.726,2.563,2.925l0.69-0.313c-0.251-0.554-0.568-1.072-0.942-1.545l0.402-0.351
					C272.065,465.716,272.129,465.719,272.194,465.711z"/>
				<path id="XMLID_343_" style="fill:#102028;" d="M265.044,473.372c-0.386,0.023-0.775,0.035-1.157,0.035
					c-0.88,0-1.733-0.061-2.478-0.179c-0.39-0.062-0.846-0.155-1.27-0.292c1.046,1.861,3.069,3.125,5.388,3.125
					c2.855,0,5.262-1.916,5.95-4.504c-0.682,0.449-1.505,0.825-2.459,1.123C267.839,473.047,266.464,473.286,265.044,473.372z"/>
				<path id="XMLID_339_" style="fill:#102028;" d="M265.592,464.68c-3.352,0-6.08,2.666-6.08,5.943
					c0,0.426,0.046,0.849,0.137,1.261c0.674,0.483,2.706,0.89,5.348,0.731c2.879-0.173,5.297-0.957,6.672-2.159
					c-0.005-0.195-0.021-0.39-0.045-0.582C271.244,466.913,268.65,464.68,265.592,464.68z M263.432,471.194
					c-1.02,0-1.85-0.83-1.85-1.85c0-1.02,0.83-1.85,1.85-1.85c1.02,0,1.85,0.83,1.85,1.85
					C265.282,470.365,264.452,471.194,263.432,471.194z M268.17,470.286c-0.75,0-1.36-0.61-1.36-1.36s0.61-1.361,1.36-1.361
					c0.75,0,1.361,0.61,1.361,1.361S268.92,470.286,268.17,470.286z"/>
			</g>
			<path id="XMLID_336_" style="fill:#102028;" d="M281.595,466.547c-0.295-0.116-0.806-0.309-1.382-0.237
				c-0.551,0.069-0.844,0.341-0.844,1.007v0.866h2.228v1.717h-2.228v5.455h-1.932v-5.455h-1.34v-1.717h1.34v-0.888
				c0-1.68,0.895-2.783,2.568-2.783c0.642,0,1.157,0.122,1.59,0.308L281.595,466.547z"/>
			<path id="XMLID_334_" style="fill:#102028;" d="M286.298,469.879c-0.177-0.03-0.358-0.046-0.526-0.046
				c-0.896,0-1.51,0.548-1.51,1.614v3.908h-1.932v-7.172h1.873v0.785c0.451-0.673,1.14-0.977,2.021-0.977
				c0.414,0,0.848,0.128,1.094,0.337L286.298,469.879z"/>
			<path id="XMLID_331_" style="fill:#102028;" d="M293.965,471.757c0,0.222-0.015,0.489-0.037,0.651h-5.085
				c0.207,1.036,0.933,1.488,1.843,1.488c0.622,0,1.295-0.252,1.813-0.688l1.133,1.243c-0.814,0.748-1.85,1.088-3.057,1.088
				c-2.198,0-3.723-1.495-3.723-3.753c0-2.258,1.48-3.797,3.626-3.797C292.544,467.99,293.958,469.522,293.965,471.757z
				 M288.851,471.091h3.175c-0.178-0.918-0.733-1.436-1.562-1.436C289.554,469.655,289.021,470.203,288.851,471.091z"/>
			<path id="XMLID_328_" style="fill:#102028;" d="M301.618,471.757c0,0.222-0.015,0.489-0.037,0.651h-5.085
				c0.207,1.036,0.932,1.488,1.843,1.488c0.622,0,1.295-0.252,1.813-0.688l1.132,1.243c-0.814,0.748-1.85,1.088-3.057,1.088
				c-2.198,0-3.723-1.495-3.723-3.753c0-2.258,1.48-3.797,3.627-3.797C300.197,467.99,301.611,469.522,301.618,471.757z
				 M296.504,471.091h3.175c-0.178-0.918-0.733-1.436-1.562-1.436C297.207,469.655,296.674,470.203,296.504,471.091z"/>
			<path id="XMLID_325_" style="fill:#102028;" d="M309.964,471.764c0,2.154-1.495,3.775-3.471,3.775
				c-0.962,0-1.643-0.378-2.109-0.933v3.708h-1.924v-10.133h1.887v0.792c0.466-0.585,1.155-0.984,2.139-0.984
				C308.469,467.99,309.964,469.61,309.964,471.764z M304.287,471.764c0,1.132,0.747,1.976,1.843,1.976
				c1.14,0,1.85-0.881,1.85-1.976c0-1.095-0.711-1.976-1.85-1.976C305.035,469.788,304.287,470.632,304.287,471.764z"/>
			<path id="XMLID_322_" style="fill:#102028;" d="M313.068,465.836c0,0.696-0.54,1.229-1.236,1.229
				c-0.696,0-1.229-0.533-1.229-1.229c0-0.696,0.533-1.243,1.229-1.243C312.527,464.592,313.068,465.14,313.068,465.836z
				 M312.809,475.354h-1.932v-7.172h1.932V475.354z"/>
			<path id="XMLID_320_" style="fill:#102028;" d="M316.032,470.736l2.702-2.554h2.368l-3.479,3.375l3.501,3.797h-2.376
				l-2.716-2.901v2.901H314.1v-10.658h1.932V470.736z"/>
		</g>
		<g>
			<path style="fill:#102028;" d="M184.412,475.289v-1.055c-0.527,0.718-1.391,1.23-2.387,1.23c-1.846,0-3.149-1.406-3.149-3.706
				c0-2.256,1.289-3.721,3.149-3.721c0.952,0,1.816,0.469,2.387,1.245v-3.765h1.099v9.77H184.412z M184.412,473.37v-3.208
				c-0.395-0.615-1.245-1.143-2.124-1.143c-1.421,0-2.27,1.172-2.27,2.739c0,1.567,0.85,2.724,2.27,2.724
				C183.168,474.483,184.017,473.986,184.412,473.37z"/>
			<path style="fill:#102028;" d="M186.932,471.744c0-2.051,1.465-3.706,3.486-3.706c2.139,0,3.398,1.67,3.398,3.794v0.279h-5.727
				c0.088,1.333,1.025,2.446,2.549,2.446c0.806,0,1.626-0.322,2.182-0.894l0.527,0.718c-0.703,0.703-1.655,1.084-2.812,1.084
				C188.441,475.465,186.932,473.956,186.932,471.744z M190.404,468.947c-1.509,0-2.256,1.274-2.314,2.358h4.643
				C192.718,470.25,192.015,468.947,190.404,468.947z"/>
			<path style="fill:#102028;" d="M194.607,474.351l0.571-0.791c0.469,0.542,1.362,1.011,2.329,1.011c1.084,0,1.67-0.513,1.67-1.216
				c0-1.714-4.38-0.659-4.38-3.281c0-1.098,0.952-2.036,2.636-2.036c1.201,0,2.051,0.454,2.622,1.026l-0.513,0.762
				c-0.424-0.513-1.201-0.894-2.109-0.894c-0.967,0-1.567,0.483-1.567,1.113c0,1.552,4.38,0.527,4.38,3.281
				c0,1.187-0.952,2.138-2.783,2.138C196.306,475.465,195.325,475.113,194.607,474.351z"/>
			<path style="fill:#102028;" d="M201.477,466.471c0-0.41,0.337-0.747,0.732-0.747c0.41,0,0.747,0.337,0.747,0.747
				c0,0.41-0.337,0.732-0.747,0.732C201.814,467.203,201.477,466.881,201.477,466.471z M201.667,475.289v-7.075h1.099v7.075H201.667
				z"/>
			<path style="fill:#102028;" d="M204.582,477.105l0.556-0.82c0.586,0.703,1.289,0.967,2.3,0.967c1.172,0,2.27-0.571,2.27-2.124
				v-1.011c-0.513,0.718-1.377,1.26-2.373,1.26c-1.845,0-3.149-1.377-3.149-3.662c0-2.27,1.289-3.677,3.149-3.677
				c0.952,0,1.802,0.469,2.373,1.245v-1.069h1.099v6.87c0,2.344-1.641,3.076-3.369,3.076
				C206.237,478.16,205.417,477.926,204.582,477.105z M209.709,473.253v-3.091c-0.381-0.615-1.23-1.143-2.109-1.143
				c-1.421,0-2.27,1.128-2.27,2.695c0,1.553,0.849,2.695,2.27,2.695C208.478,474.41,209.328,473.868,209.709,473.253z"/>
			<path style="fill:#102028;" d="M217.413,475.289v-4.629c0-1.245-0.63-1.641-1.582-1.641c-0.865,0-1.685,0.527-2.095,1.099v5.17
				h-1.099v-7.075h1.099v1.025c0.498-0.586,1.464-1.201,2.519-1.201c1.48,0,2.256,0.747,2.256,2.285v4.966H217.413z"/>
			<path style="fill:#102028;" d="M219.932,471.744c0-2.051,1.465-3.706,3.486-3.706c2.139,0,3.398,1.67,3.398,3.794v0.279h-5.727
				c0.088,1.333,1.025,2.446,2.549,2.446c0.806,0,1.626-0.322,2.183-0.894l0.527,0.718c-0.703,0.703-1.655,1.084-2.812,1.084
				C221.441,475.465,219.932,473.956,219.932,471.744z M223.404,468.947c-1.509,0-2.256,1.274-2.314,2.358h4.643
				C225.718,470.25,225.015,468.947,223.404,468.947z"/>
			<path style="fill:#102028;" d="M233.35,475.289v-1.055c-0.527,0.718-1.392,1.23-2.388,1.23c-1.846,0-3.149-1.406-3.149-3.706
				c0-2.256,1.289-3.721,3.149-3.721c0.952,0,1.817,0.469,2.388,1.245v-3.765h1.098v9.77H233.35z M233.35,473.37v-3.208
				c-0.396-0.615-1.245-1.143-2.124-1.143c-1.421,0-2.27,1.172-2.27,2.739c0,1.567,0.849,2.724,2.27,2.724
				C232.105,474.483,232.954,473.986,233.35,473.37z"/>
			<path style="fill:#102028;" d="M239.692,475.289v-9.77h1.098v3.765c0.572-0.776,1.421-1.245,2.388-1.245
				c1.845,0,3.149,1.465,3.149,3.721c0,2.299-1.304,3.706-3.149,3.706c-0.996,0-1.86-0.513-2.388-1.23v1.055H239.692z
				 M242.9,474.483c1.436,0,2.286-1.157,2.286-2.724c0-1.568-0.85-2.739-2.286-2.739c-0.864,0-1.728,0.527-2.109,1.143v3.208
				C241.171,473.986,242.036,474.483,242.9,474.483z"/>
			<path style="fill:#102028;" d="M247.529,477.061c0.161,0.073,0.425,0.117,0.601,0.117c0.483,0,0.805-0.161,1.055-0.747
				l0.469-1.069l-2.959-7.148h1.187l2.358,5.8l2.344-5.8h1.201l-3.545,8.51c-0.425,1.025-1.143,1.421-2.08,1.435
				c-0.234,0-0.601-0.044-0.805-0.103L247.529,477.061z"/>
		</g>
	</g>
</g>
</svg>
